<mxfile host="app.diagrams.net" modified="2021-06-03T09:48:12.645Z" agent="5.0 (Windows NT 6.1; Win64; x64) AppleWebKit/537.36 (KHTML, like Gecko) Chrome/90.0.4430.212 Safari/537.36" etag="Ut1KUQLxSDiAOG23NX9x" version="14.7.3" type="github" pages="2">
  <diagram id="kEl3cbJcu_3AWRkWCvuC" name="Page-1">
    <mxGraphModel dx="1422" dy="789" grid="1" gridSize="10" guides="1" tooltips="1" connect="1" arrows="1" fold="1" page="1" pageScale="1" pageWidth="850" pageHeight="1100" math="0" shadow="0">
      <root>
        <mxCell id="0" />
        <mxCell id="1" parent="0" />
        <mxCell id="KP8WJ8_PRSOfsoX8eqUK-1" value="nl_tamper.sys" style="rounded=1;whiteSpace=wrap;html=1;" vertex="1" parent="1">
          <mxGeometry x="530" y="370" width="120" height="60" as="geometry" />
        </mxCell>
        <mxCell id="KP8WJ8_PRSOfsoX8eqUK-2" value="tamper_plugin.dll" style="rounded=1;whiteSpace=wrap;html=1;" vertex="1" parent="1">
          <mxGeometry x="360" y="370" width="120" height="60" as="geometry" />
        </mxCell>
        <mxCell id="KP8WJ8_PRSOfsoX8eqUK-3" value="cepdpman.exe" style="rounded=1;whiteSpace=wrap;html=1;" vertex="1" parent="1">
          <mxGeometry x="340" y="230" width="120" height="60" as="geometry" />
        </mxCell>
      </root>
    </mxGraphModel>
  </diagram>
  <diagram id="OSVOGQKxmKQWKJUYL6PD" name="Page-2">
    <mxGraphModel dx="1422" dy="789" grid="1" gridSize="10" guides="1" tooltips="1" connect="1" arrows="1" fold="1" page="1" pageScale="1" pageWidth="850" pageHeight="1100" math="0" shadow="0">
      <root>
        <mxCell id="CqMN7jEW21CeQr7TeeHq-0" />
        <mxCell id="CqMN7jEW21CeQr7TeeHq-1" parent="CqMN7jEW21CeQr7TeeHq-0" />
        <mxCell id="CqMN7jEW21CeQr7TeeHq-2" value=":Object" style="shape=umlLifeline;perimeter=lifelinePerimeter;whiteSpace=wrap;html=1;container=1;collapsible=0;recursiveResize=0;outlineConnect=0;" vertex="1" parent="CqMN7jEW21CeQr7TeeHq-1">
          <mxGeometry x="80" y="40" width="100" height="300" as="geometry" />
        </mxCell>
      </root>
    </mxGraphModel>
  </diagram>
</mxfile>
